<svg id="Layer_1" data-name="Layer 1" xmlns="http://www.w3.org/2000/svg" viewBox="0 0 258.38 77.96"><defs><style>.cls-1{fill:#0086ca;}.cls-2{fill:#004f7a;}.cls-3{fill:#fff;}.cls-4{fill:#ed1c24;}</style></defs><path class="cls-1" d="M30.33,60.81a16.36,16.36,0,0,1-5.86-1,14.13,14.13,0,0,1-4.68-2.87,13.23,13.23,0,0,1-3.1-4.43,14.83,14.83,0,0,1,0-11.26,13.13,13.13,0,0,1,3.1-4.43,14,14,0,0,1,4.68-2.87,16.36,16.36,0,0,1,5.86-1A16.54,16.54,0,0,1,37,34.19,12.52,12.52,0,0,1,41.86,38L37,42.34A9.52,9.52,0,0,0,34.16,40a7.4,7.4,0,0,0-3.45-.81,8.23,8.23,0,0,0-3,.54,6.6,6.6,0,0,0-2.36,1.55,7.33,7.33,0,0,0-1.53,2.44,9.08,9.08,0,0,0,0,6.28,7.19,7.19,0,0,0,1.53,2.43A6.35,6.35,0,0,0,27.69,54a8.23,8.23,0,0,0,3,.54,7.52,7.52,0,0,0,3.45-.8A9.25,9.25,0,0,0,37,51.34l4.82,4.37A12.64,12.64,0,0,1,37,59.5,16.21,16.21,0,0,1,30.33,60.81Z"/><path class="cls-1" d="M53.94,60.58a11.88,11.88,0,0,1-5.55-1.26,9.73,9.73,0,0,1-3.81-3.49,10.1,10.1,0,0,1,0-10.19,9.66,9.66,0,0,1,3.81-3.49,12.81,12.81,0,0,1,11.12,0,9.38,9.38,0,0,1,5.22,8.6,9.47,9.47,0,0,1-1.39,5.08,9.65,9.65,0,0,1-3.83,3.49A12,12,0,0,1,53.94,60.58Zm0-5.3a3.83,3.83,0,0,0,2-.53,3.76,3.76,0,0,0,1.44-1.56A5.27,5.27,0,0,0,58,50.72a5,5,0,0,0-.55-2.46,4,4,0,0,0-5.48-1.51,4,4,0,0,0-1.44,1.51,5,5,0,0,0-.54,2.46,5.27,5.27,0,0,0,.54,2.47,3.9,3.9,0,0,0,1.44,1.56A3.83,3.83,0,0,0,53.94,55.28Z"/><path class="cls-1" d="M75.89,59.29a9.58,9.58,0,0,1-4.61-1.15A8.86,8.86,0,0,1,67.87,55a9.92,9.92,0,0,1,0-9.75A8.74,8.74,0,0,1,71.28,42a9.79,9.79,0,0,1,4.61-1.12,8.34,8.34,0,0,1,4.18,1,6.26,6.26,0,0,1,2.62,3,13,13,0,0,1,.9,5.18,12.94,12.94,0,0,1-.9,5.18,6.21,6.21,0,0,1-2.62,3A8.24,8.24,0,0,1,75.89,59.29Zm1.2,8.11a21.37,21.37,0,0,1-5.24-.63,12.63,12.63,0,0,1-4.21-1.87l2.42-4.63a9.58,9.58,0,0,0,3,1.46,12,12,0,0,0,3.5.54,5.25,5.25,0,0,0,3.84-1.18,4.6,4.6,0,0,0,1.18-3.42V55.46l.35-5.38V41.2h6.32V56.79c0,3.61-1,6.28-2.9,8S80.65,67.4,77.09,67.4ZM77.51,54a4.42,4.42,0,0,0,2.14-.49,4,4,0,0,0,1.46-5.44,3.68,3.68,0,0,0-1.46-1.36,5.08,5.08,0,0,0-4.27,0,3.82,3.82,0,0,0-1.49,1.36,4,4,0,0,0,0,4.07,3.93,3.93,0,0,0,1.49,1.37A4.46,4.46,0,0,0,77.51,54Z"/><path class="cls-1" d="M92.54,60.27V41.2h6.39v5.44l-1.26-1.58a7.58,7.58,0,0,1,3-3.11,8.64,8.64,0,0,1,4.29-1.07,8.78,8.78,0,0,1,4,.91,6.65,6.65,0,0,1,2.83,2.78,9.83,9.83,0,0,1,1,4.81V60.27H106.1v-9.8a4.41,4.41,0,0,0-.83-3,2.83,2.83,0,0,0-2.23-.93,4.11,4.11,0,0,0-2,.47,3.24,3.24,0,0,0-1.37,1.46,5.81,5.81,0,0,0-.5,2.6v9.17Z"/><path class="cls-1" d="M120.32,39.12a4.17,4.17,0,0,1-3-1,3.31,3.31,0,0,1-1.11-2.53,3.22,3.22,0,0,1,1.11-2.51,4.22,4.22,0,0,1,3-1,4.43,4.43,0,0,1,3,.95,3,3,0,0,1,1.13,2.43,3.47,3.47,0,0,1-1.11,2.63A4.14,4.14,0,0,1,120.32,39.12ZM117,60.27V41.2h6.67V60.27Z"/><path class="cls-2" d="M125.3,60.27l11.84-26.82h7.47l11.88,26.82H148.6l-9.28-23.11h3L133,60.27ZM131.78,55l1.95-5.56h13.1l2,5.56Z"/><path class="cls-2" d="M166.17,59.29a9.65,9.65,0,0,1-4.62-1.15A8.93,8.93,0,0,1,158.14,55a9.92,9.92,0,0,1,0-9.75,8.81,8.81,0,0,1,3.41-3.2,9.86,9.86,0,0,1,4.62-1.12,8.36,8.36,0,0,1,4.18,1,6.26,6.26,0,0,1,2.62,3,13.16,13.16,0,0,1,.89,5.18,13.13,13.13,0,0,1-.89,5.18,6.21,6.21,0,0,1-2.62,3A8.26,8.26,0,0,1,166.17,59.29Zm1.19,8.11a21.29,21.29,0,0,1-5.23-.63,12.54,12.54,0,0,1-4.21-1.87l2.42-4.63a9.47,9.47,0,0,0,3,1.46,12,12,0,0,0,3.49.54,5.28,5.28,0,0,0,3.85-1.18,4.63,4.63,0,0,0,1.17-3.42V55.46l.36-5.38V41.2h6.32V56.79q0,5.41-2.9,8T167.36,67.4ZM167.79,54a4.42,4.42,0,0,0,2.14-.49,3.84,3.84,0,0,0,1.46-1.37,4.1,4.1,0,0,0,0-4.07,3.74,3.74,0,0,0-1.46-1.36,5.08,5.08,0,0,0-4.27,0,3.76,3.76,0,0,0-1.49,1.36,4,4,0,0,0,0,4.07,3.85,3.85,0,0,0,1.49,1.37A4.46,4.46,0,0,0,167.79,54Z"/><path class="cls-2" d="M192.83,60.58a12.79,12.79,0,0,1-5.92-1.28,9.63,9.63,0,0,1-3.9-3.51,9.41,9.41,0,0,1-1.39-5A9.59,9.59,0,0,1,183,45.64a9.41,9.41,0,0,1,3.72-3.49,11.2,11.2,0,0,1,5.39-1.27,11,11,0,0,1,5.11,1.18,9.35,9.35,0,0,1,3.69,3.37,9.87,9.87,0,0,1,1.39,5.36c0,.23,0,.5,0,.8s-.05.59-.07.85H187.1V48.92h11.52l-2.53,1a4.34,4.34,0,0,0-.47-2.23,3.73,3.73,0,0,0-1.39-1.5,3.93,3.93,0,0,0-2.07-.52,4.21,4.21,0,0,0-2.14.52,3.48,3.48,0,0,0-1.39,1.5,5,5,0,0,0-.47,2.26v1a4.74,4.74,0,0,0,.58,2.42A3.88,3.88,0,0,0,190.4,55a5.83,5.83,0,0,0,2.6.54,6.44,6.44,0,0,0,2.43-.4,7.39,7.39,0,0,0,2-1.25l3.48,3.69a8.68,8.68,0,0,1-3.34,2.26A12.68,12.68,0,0,1,192.83,60.58Z"/><path class="cls-2" d="M205.37,60.27V41.2h6.39v5.44l-1.27-1.58a7.67,7.67,0,0,1,3-3.11,8.58,8.58,0,0,1,4.28-1.07,8.83,8.83,0,0,1,4,.91,6.71,6.71,0,0,1,2.83,2.78,9.83,9.83,0,0,1,1,4.81V60.27h-6.71v-9.8a4.41,4.41,0,0,0-.82-3,2.84,2.84,0,0,0-2.23-.93,4.15,4.15,0,0,0-2,.47,3.35,3.35,0,0,0-1.37,1.46,5.82,5.82,0,0,0-.49,2.6v9.17Z"/><path class="cls-2" d="M227.81,46.18v-5h13.8v5Zm10.5,14.4a8.32,8.32,0,0,1-5.69-1.8,6.94,6.94,0,0,1-2-5.47V37h6.68V53.21a2.29,2.29,0,0,0,.54,1.65,2,2,0,0,0,1.46.56,3.55,3.55,0,0,0,2-.6L243,59.46a6.1,6.1,0,0,1-2.12.86A11.73,11.73,0,0,1,238.31,60.58Z"/><rect class="cls-3" x="111.76" y="27.36" width="17.73" height="13.48"/><rect class="cls-2" x="110.24" y="23.89" width="20.79" height="2.26"/><rect class="cls-2" x="110.24" y="23.89" width="20.79" height="2.26" transform="translate(95.61 145.65) rotate(-90)"/><rect class="cls-2" x="117.88" y="18.03" width="16.51" height="2.26" transform="translate(201.78 121.9) rotate(-135)"/><rect class="cls-2" x="106.87" y="29.21" width="16.51" height="2.26" transform="translate(175.07 133.21) rotate(-135)"/><rect class="cls-2" x="106.69" y="18.03" width="16.51" height="2.26" transform="translate(209.77 -48.58) rotate(135)"/><rect class="cls-2" x="117.88" y="29.21" width="16.51" height="2.26" transform="translate(236.78 -37.39) rotate(135)"/><circle class="cls-4" cx="109.32" cy="25.02" r="2.59"/><circle class="cls-4" cx="120.63" cy="36.33" r="2.59"/><circle class="cls-4" cx="131.94" cy="25.02" r="2.59"/><circle class="cls-4" cx="120.63" cy="13.71" r="2.59"/><circle class="cls-4" cx="120.63" cy="25.02" r="2.59"/></svg>